M48
; DRILL file {KiCad 9.0.6} date 2026-01-20T16:19:41+0100
; FORMAT={-:-/ absolute / metric / decimal}
; #@! TF.CreationDate,2026-01-20T16:19:41+01:00
; #@! TF.GenerationSoftware,Kicad,Pcbnew,9.0.6
; #@! TF.FileFunction,Plated,1,2,PTH
FMAT,2
METRIC
; #@! TA.AperFunction,Plated,PTH,ViaDrill
T1C0.300
; #@! TA.AperFunction,Plated,PTH,ComponentDrill
T2C0.889
; #@! TA.AperFunction,Plated,PTH,ComponentDrill
T3C1.000
; #@! TA.AperFunction,Plated,PTH,ComponentDrill
T4C1.500
%
G90
G05
T1
X138.0Y-79.5
X144.0Y-102.0
X149.5Y-103.0
X150.0Y-107.0
X151.5Y-86.0
X160.624Y-112.624
T2
X144.96Y-99.5
X144.96Y-114.74
X147.5Y-99.5
X147.5Y-114.74
X150.04Y-99.5
X150.04Y-114.74
X152.58Y-99.5
X152.58Y-114.74
X155.12Y-99.5
X155.12Y-114.74
X157.66Y-99.5
X157.66Y-114.74
X160.2Y-99.5
X160.2Y-114.74
T3
X125.5Y-104.5
X125.5Y-109.5
X133.5Y-72.0
X133.5Y-74.54
X133.5Y-77.08
X133.5Y-79.62
X140.0Y-104.5
X140.0Y-107.0
X140.0Y-109.5
T4
X169.15Y-120.04
X169.15Y-139.46
X175.5Y-117.5
X175.5Y-136.92
T4
G00X133.15Y-101.4
M15
G01X131.85Y-101.4
M16
G05
G00X133.15Y-112.6
M15
G01X131.85Y-112.6
M16
G05
M30
